<?xml version="1.0" standalone="no"?>
<!DOCTYPE svg PUBLIC "-//W3C//DTD SVG 1.1//EN"
  "http://www.w3.org/Graphics/SVG/1.1/DTD/svg11.dtd">
<svg width="114mm" height="84mm" viewBox="-63 -41 114 84" xmlns="http://www.w3.org/2000/svg" version="1.1">
	<title>svgOutput</title>
	<desc>made with tinkercad</desc>
<path d="M 42.00299835205078 -10 L 50 -10 L 50 -2.003000020980835 L 47.99800109863281 -2.003000020980835 L 47.99800109863281 2.003000020980835 L 50 2.003000020980835 L 50 10 L 42 10 L 42 12 L 38 12 L 38 10 L 30 10 L 30 2.003000020980835 L 32.00199890136719 2.003000020980835 L 32.00199890136719 -2.003000020980835 L 30 -2.003000020980835 L 30 -10 L 37.99800109863281 -10 L 37.99800109863281 -7.998000144958496 L 38 -7.998000144958496 L 42 -7.998000144958496 L 42.00299835205078 -7.998000144958496 L 42.00299835205078 -10 M 50 40 L 42.00299835205078 40 L 42 40 L 42 42 L 38 42 L 38 40 L 37.99800109863281 40 L 30 40 L 30 32.00199890136719 L 32.00199890136719 32.00199890136719 L 32.00199890136719 27.99799919128418 L 30 27.99799919128418 L 30 20 L 37.99800109863281 20 L 37.99800109863281 22.003000259399414 L 38 22.003000259399414 L 42 22.003000259399414 L 42.00299835205078 22.003000259399414 L 42.00299835205078 20 L 50 20 L 50 27.99799919128418 L 47.99800109863281 27.99799919128418 L 47.99800109863281 32.00199890136719 L 50 32.00199890136719 L 50 40 M -52 -12 L -48 -12 L -48 -10 L -40 -10 L -40 -2.003000020980835 L -42.00299835205078 -2.003000020980835 L -42.00299835205078 -2 L -42.00299835205078 2 L -42.00299835205078 2.003000020980835 L -40 2.003000020980835 L -40 10 L -48 10 L -48 12 L -52 12 L -52 10 L -60 10 L -60 2 L -62 2 L -62 -2 L -60 -2 L -60 -10 L -52 -10 L -52 -12 M 30 -20 L 30 -27.99799919128418 L 32.00199890136719 -27.99799919128418 L 32.00199890136719 -32.00199890136719 L 30 -32.00199890136719 L 30 -40 L 37.99800109863281 -40 L 37.99800109863281 -37.99800109863281 L 38 -37.99800109863281 L 42 -37.99800109863281 L 42.00299835205078 -37.99800109863281 L 42.00299835205078 -40 L 50 -40 L 50 -32.00199890136719 L 47.99800109863281 -32.00199890136719 L 47.99800109863281 -27.99799919128418 L 50 -27.99799919128418 L 50 -20 L 42.00299835205078 -20 L 42 -20 L 42 -18 L 38 -18 L 38 -20 L 37.99800109863281 -20 L 30 -20 M -10 10 L -17.99799919128418 10 L -17.99799919128418 7.998000144958496 L -18 7.998000144958496 L -22 7.998000144958496 L -22.003000259399414 7.998000144958496 L -22.003000259399414 10 L -30 10 L -30 2 L -32 2 L -32 -2 L -30 -2 L -30 -10 L -22.003000259399414 -10 L -22 -10 L -22 -12 L -18 -12 L -18 -10 L -17.99799919128418 -10 L -10 -10 L -10 -2.003000020980835 L -12.003000259399414 -2.003000020980835 L -12.003000259399414 2.003000020980835 L -10 2.003000020980835 L -10 10 M 22 -2 L 22 2 L 20 2 L 20 10 L 12 10 L 12 12 L 8 12 L 8 10 L 0 10 L 0 2 L -2 2 L -2 -2 L 0 -2 L 0 -10 L 8 -10 L 8 -12 L 12 -12 L 12 -10 L 20 -10 L 20 -2 L 22 -2 z" fill="none" stroke="rgb(0,0,255)" stroke-width="0.01mm" />
</svg>